<?xml version="1.0" encoding="UTF-8"?>
<svg id="Capa_1" data-name="Capa 1" xmlns="http://www.w3.org/2000/svg" viewBox="0 0 2104.76 931.38">
  <defs>
    <style>
      .cls-1 {
        fill: #ffeb00;
      }

      .cls-1, .cls-2 {
        fill-rule: evenodd;
      }

      .cls-1, .cls-2, .cls-3, .cls-4 {
        stroke: #fff;
        stroke-miterlimit: 10;
      }

      .cls-2 {
        fill: #484441;
      }

      .cls-3 {
        fill: #fff;
      }

      .cls-4 {
        fill: #474341;
      }

      .cls-5 {
        fill: #1d1d1b;
        stroke-width: 0px;
      }
    </style>
  </defs>
  <rect class="cls-5" width="2104.76" height="931.38"/>
  <g>
    <path class="cls-4" d="m1177.35,534.35c-31.63,31.74-75.35,51.42-123.68,51.51l-1.35.02h0s0-.02,0-.02c-47.77-.27-91.05-19.72-122.51-51.07-31.74-31.63-51.42-75.35-51.51-123.67l-.02-1.35h0s0,0,0,0h.02c.27-47.77,19.73-91.05,51.07-122.51,31.63-31.74,75.35-51.43,123.67-51.51l1.35-.02h0s0,0,0,0v.02c47.77.27,91.05,19.73,122.51,51.07,31.74,31.63,51.42,75.36,51.51,123.68l.02,1.35h0s-.02,0-.02,0c-.27,47.77-19.73,91.05-51.07,122.51"/>
    <path class="cls-3" d="m1128.13,485.98c-19.07,19.14-45.43,31-74.57,31.06h-.81s0,.01,0,.01h0c-28.8-.18-54.89-11.91-73.86-30.81-19.14-19.07-31-45.43-31.06-74.56v-.81s-.01,0-.01,0h0s.01,0,.01,0c.16-28.8,11.89-54.89,30.79-73.86,19.07-19.14,45.43-31,74.56-31.06h.81s0-.01,0-.01h0,0c28.8.18,54.89,11.91,73.86,30.81,19.14,19.07,31,45.43,31.06,74.57v.81s.01,0,.01,0h-.01c-.17,28.8-11.89,54.89-30.79,73.86"/>
    <path class="cls-1" d="m1053.22,334.3c22.98-.04,41.64,18.55,41.68,41.52.03,15.94-8.91,29.8-22.06,36.81l10.93,74.61-59.93.11,10.61-74.36c-13.48-6.86-22.72-20.85-22.75-37.01-.04-22.98,18.55-41.64,41.53-41.68m.41,222.95c80.88-.15,146.32-65.84,146.18-146.71-.15-80.88-65.84-146.33-146.71-146.18-80.88.15-146.33,65.84-146.18,146.71.15,80.88,65.83,146.33,146.71,146.18Z"/>
    <path class="cls-2" d="m1053.22,334.3c22.98-.04,41.63,18.55,41.68,41.52.03,15.94-8.91,29.8-22.06,36.81l10.92,74.61-59.93.11,10.61-74.36c-13.48-6.86-22.72-20.85-22.75-37.01-.04-22.98,18.55-41.64,41.53-41.68m31.68,83.83l11.75,80.23-85.66.16,11.4-79.88c-13.54-9.79-21.8-25.56-21.83-42.64-.05-29.13,23.52-52.79,52.64-52.84,29.13-.05,52.78,23.52,52.84,52.64.03,16.84-7.94,32.45-21.14,42.33Z"/>
    <path class="cls-1" d="m860.23,559.7c12.59-.02,22.78-10.25,22.76-22.84-.02-12.59-10.25-22.78-22.84-22.76-12.59.02-22.78,10.25-22.76,22.84.02,12.59,10.25,22.78,22.84,22.76m381.33-.7c12.59-.02,22.78-10.25,22.76-22.84-.02-12.59-10.25-22.78-22.84-22.76-12.59.02-22.78,10.25-22.76,22.84.02,12.59,10.25,22.78,22.84,22.76Z"/>
    <path class="cls-4" d="m1319.54,447.18c-2.89-3.24-5.53-6.72-7.92-10.45-10.09-15.72-15.15-35.15-15.19-58.27-.05-25.9,5.31-47.39,16.05-64.48,11.62-18.48,28.68-30.94,51.17-37.39h.15c14.14-3.97,32.51-6.91,55.09-8.82,21.93-1.85,47.9-2.8,77.92-2.86,20.62-.04,39.47.31,56.49,1.02,16.93.71,31.6,1.81,44,3.29h.15c20.17,2.48,37.13,7.92,50.87,16.35,15.43,9.46,26.33,22.31,32.66,38.58h-.01c2.43,6.07,4.28,12.69,5.55,19.85,1.11,6.29,1.85,13.83,2.2,22.61l1.12,27.93-12.99.02c5.38,5.3,9.86,11.29,13.42,17.93h.02c4.26,7.8,7.36,16.76,9.3,26.87,1.77,9.22,2.66,19.46,2.69,30.73.02,12.79-1.23,24.4-3.76,34.84-2.72,11.23-7.02,21.34-12.9,30.33-6.02,9.2-13.61,16.96-22.79,23.29-8.77,6.05-18.85,10.76-30.26,14.17-14.08,4.19-33.73,7.28-58.92,9.3-24.34,1.94-53.86,2.95-88.56,3.01-18.91.04-36.11-.24-51.55-.82-15.24-.57-28.37-1.47-39.34-2.69h0c-19.98-2.14-37.16-7.23-51.53-15.26-15.65-8.75-27.65-20.73-35.99-35.92-4.3-7.84-7.49-16.61-9.58-26.28-1.97-9.13-3.02-19.02-3.15-29.67l-.32-27.19,25.91-.05Z"/>
    <path class="cls-3" d="m1320.87,474.08l99.11-.18c.2,9.36,4.3,15.99,12.22,19.89,8.74,4.44,33.56,6.58,74.57,6.5,22.28-.04,39.19-1.25,50.91-3.55,14.54-2.66,21.8-9.41,21.78-20.23-.02-11.91-9.13-18.53-27.22-19.86-8.27-.71-24.64-1.05-48.92-1l-46.64.09c-40.46.07-70.47-3.05-89.76-9.38-29.02-9.58-43.52-32.2-43.59-67.93-.08-41.55,15.88-66.86,47.78-76.01,24.72-6.96,66.63-10.49,125.73-10.6,41.55-.08,74.01,1.32,97.3,4.09,32.83,4.03,53.49,16.63,61.81,37.98,3.38,8.36,5.4,19.63,5.97,33.81l-98.56.18c-1.1-7.27-5.84-12.17-14.21-14.61-7.46-2.26-24.28-3.41-50.56-3.36-24.91.05-44.28,1.26-58.09,3.56-13.54,2.12-20.26,8.22-20.24,18.13.02,8.73,6.03,14.17,18.12,16.52,8.19,1.35,22.83,2.05,43.74,2.01l66.1-.12c36.01-.07,63.02,2.52,80.94,7.85,18.1,5.24,30.67,14.49,37.6,27.57,5.75,10.54,8.59,25.44,8.63,44.72.04,21.18-4.02,37.92-12.18,50.39-8.16,12.47-20.87,21.22-38.32,26.44-24.63,7.32-71.26,11.04-139.82,11.17-38.28.07-67.65-1.06-87.84-3.29-32.92-3.49-55.22-15.99-66.99-37.43-6.02-10.99-9.14-25.44-9.35-43.35"/>
    <path class="cls-4" d="m435.4,448.81c-2.89-3.24-5.53-6.72-7.92-10.45-10.09-15.72-15.15-35.15-15.19-58.27-.05-25.92,5.31-47.41,16.06-64.49,11.62-18.47,28.68-30.93,51.16-37.38h.15c14.14-3.97,32.5-6.91,55.08-8.82,21.93-1.85,47.91-2.8,77.92-2.86,20.63-.04,39.47.31,56.49,1.02,16.93.71,31.6,1.81,43.99,3.29h.15c20.16,2.48,37.13,7.92,50.88,16.35,15.43,9.46,26.33,22.31,32.66,38.58h-.01c2.43,6.07,4.28,12.69,5.55,19.85,1.11,6.29,1.85,13.83,2.2,22.61l1.12,27.93-12.99.02c5.38,5.3,9.86,11.29,13.42,17.93h.02c4.26,7.8,7.36,16.76,9.3,26.88,1.77,9.22,2.66,19.46,2.69,30.73.02,12.79-1.23,24.4-3.76,34.84-2.72,11.23-7.02,21.34-12.9,30.33-6.02,9.2-13.61,16.96-22.79,23.29-8.77,6.05-18.85,10.76-30.26,14.17-14.08,4.19-33.73,7.28-58.92,9.3-24.34,1.94-53.86,2.95-88.56,3.01-18.91.03-36.11-.24-51.56-.82-15.24-.57-28.36-1.47-39.33-2.69h0c-19.98-2.14-37.16-7.23-51.53-15.26-15.66-8.75-27.65-20.73-35.99-35.92-4.3-7.84-7.49-16.61-9.58-26.28-1.97-9.13-3.02-19.02-3.15-29.67l-.33-27.19,25.91-.05Z"/>
    <path class="cls-3" d="m436.73,475.71l99.11-.18c.2,9.36,4.3,15.99,12.22,19.89,8.74,4.44,33.56,6.58,74.57,6.5,22.28-.04,39.19-1.25,50.91-3.55,14.54-2.66,21.8-9.41,21.78-20.23-.02-11.91-9.13-18.53-27.22-19.86-8.27-.71-24.64-1.05-48.92-1l-46.64.09c-40.46.07-70.47-3.05-89.76-9.38-29.02-9.58-43.52-32.2-43.59-67.93-.08-41.55,15.88-66.86,47.78-76.01,24.72-6.96,66.63-10.49,125.73-10.6,41.55-.08,74.01,1.32,97.3,4.09,32.83,4.03,53.49,16.63,61.81,37.98,3.38,8.36,5.4,19.63,5.97,33.81l-98.56.18c-1.1-7.27-5.84-12.17-14.21-14.61-7.46-2.26-24.28-3.41-50.56-3.36-24.91.05-44.28,1.26-58.09,3.56-13.54,2.12-20.26,8.22-20.24,18.13.02,8.73,6.03,14.17,18.12,16.52,8.19,1.35,22.83,2.05,43.74,2.01l66.1-.12c36.01-.07,63.01,2.52,80.94,7.85,18.1,5.24,30.67,14.49,37.6,27.57,5.75,10.54,8.59,25.44,8.63,44.72.04,21.18-4.02,37.92-12.18,50.39-8.16,12.47-20.87,21.22-38.32,26.44-24.63,7.32-71.26,11.04-139.82,11.17-38.28.07-67.65-1.06-87.84-3.29-32.92-3.49-55.22-15.99-66.99-37.43-6.02-10.99-9.14-25.44-9.35-43.35"/>
    <path class="cls-3" d="m1598.52,671.2h22.43c.11,2.7.41,4.49.88,5.31.84,1.5,2.76,2.4,5.72,2.7,3.12.32,7.15.49,12.11.49,2.93,0,8.54-.07,16.82-.23,5.22-.11,8.78-.75,10.74-1.91,1.46-.92,2.2-2.65,2.2-5.18,0-3.74-2.2-5.89-6.61-6.48-.99-.11-4.84-.19-11.54-.23h-20.68c-10.08,0-16.97-.54-20.68-1.65-4.77-1.47-8.03-4.22-9.78-8.3-1.26-2.85-1.88-6.94-1.88-12.26s.68-9.55,2.03-12.73c1.37-3.17,3.51-5.5,6.44-7.02,4.11-2.08,10.94-3.38,20.51-3.89,3.85-.22,9.87-.34,18.04-.34,15.52,0,25.3.45,29.37,1.37,5.27,1.14,9.01,3.25,11.17,6.32,2.08,2.93,3.13,7.3,3.13,13.08v2.65h-22.28c-.04-1.69-.26-2.97-.66-3.85-.84-1.84-3.11-2.93-6.83-3.25-2.35-.19-5.72-.28-10.17-.28-8.8,0-15.52.17-20.18.49-3.57.23-5.84.96-6.83,2.21-.84,1.05-1.26,2.39-1.26,4,0,3.15,1.62,5.16,4.84,6.01.96.24,4.03.43,9.25.54h21.27c1.37,0,5.1.11,11.22.34,7.04.24,12.01.98,14.9,2.2,4.6,1.9,7.51,5.37,8.75,10.38.73,3.06,1.11,6.4,1.11,10.08,0,10.08-2.76,16.61-8.26,19.62-3.25,1.76-8.56,2.95-15.88,3.53-6.38.47-15.47.71-27.23.71-14.26,0-23.95-.54-29.09-1.65-3.08-.62-5.54-1.61-7.36-2.98-1.84-1.39-3.25-3.27-4.24-5.65-1.03-2.51-1.54-5.76-1.54-9.72,0-.96.02-2.44.06-4.45m-91.14-51.15h83.19v17.04h-60.64v12.82h57.25v14.85h-57.25v13.31h61.42v17.04h-83.96v-75.06Zm-73.35,75.06l-40.04-75.06h25.19l29.64,56.69,30.3-56.69h25.47l-41.58,75.06h-28.98Zm-95.01-29.04h32.28l-16.33-29.92-15.95,29.92Zm-41.29,29.04l42.23-75.06h30.63l41.07,75.06h-24.96l-7.47-13.42h-48.45l-7.21,13.42h-25.85Zm-75.52,0v-75.06h22.88v56.53h51.67v18.53h-74.55Zm-31.6-28.27h22.09v3.42c0,4.43-.26,7.98-.79,10.66-.55,2.67-1.45,4.86-2.72,6.55-2.91,3.88-7.53,6.23-13.87,7.08-5.39.73-16.76,1.11-34.14,1.11-10.04,0-17.72-.34-22.99-.99-9.74-1.28-15.9-5.61-18.41-12.97-1.26-3.66-2.01-7.73-2.25-12.2-.26-4.33-.39-8.9-.39-13.7,0-8.71.47-14.98,1.43-18.81,1.07-4.39,3-7.87,5.8-10.44,2.81-2.57,6.66-4.37,11.58-5.44,4.88-1.07,13.7-1.6,26.46-1.6,11.04,0,19.17.13,24.42.38,5.39.3,9.54.9,12.48,1.82,2.93.92,5.37,2.38,7.3,4.39,3.42,3.53,5.12,9.48,5.12,17.87v2.36h-21.85c-.09-1.97-.39-3.55-.86-4.73-.75-1.86-2.74-3.04-6.01-3.57-2.23-.36-7.04-.54-14.41-.54-11.36,0-18.06.19-20.07.54-4.19.77-6.78,2.76-7.75,5.95-.69,2.23-1.05,7.08-1.05,14.57,0,8.2,1.05,13.36,3.14,15.48,1.73,1.73,5.09,2.78,10.06,3.13,2.53.19,5.84.28,9.91.28,7.81,0,12.93-.06,15.39-.17,6.61-.24,10.47-1.92,11.6-4.99.49-1.35.75-3.17.79-5.44Zm-168.21,28.27v-26.01l-42.95-49.05h29.21l25.34,31.06,25.13-31.06h28.61l-42.34,49.05v26.01h-22.99Zm-165.49-23.91h22.43c.11,2.7.41,4.49.88,5.31.84,1.5,2.76,2.4,5.72,2.7,3.12.32,7.15.49,12.11.49,2.93,0,8.54-.07,16.82-.23,5.22-.11,8.78-.75,10.74-1.91,1.46-.92,2.2-2.65,2.2-5.18,0-3.74-2.2-5.89-6.61-6.48-.99-.11-4.84-.19-11.54-.23h-20.68c-10.08,0-16.97-.54-20.68-1.65-4.77-1.47-8.03-4.22-9.78-8.3-1.26-2.85-1.88-6.94-1.88-12.26s.68-9.55,2.03-12.73c1.37-3.17,3.51-5.5,6.44-7.02,4.11-2.08,10.94-3.38,20.51-3.89,3.85-.22,9.87-.34,18.04-.34,15.52,0,25.3.45,29.37,1.37,5.27,1.14,9.01,3.25,11.17,6.32,2.08,2.93,3.13,7.3,3.13,13.08v2.65h-22.28c-.04-1.69-.26-2.97-.66-3.85-.84-1.84-3.11-2.93-6.83-3.25-2.35-.19-5.72-.28-10.17-.28-8.8,0-15.52.17-20.18.49-3.57.23-5.84.96-6.83,2.21-.84,1.05-1.26,2.39-1.26,4,0,3.15,1.61,5.16,4.84,6.01.96.24,4.03.43,9.25.54h21.27c1.37,0,5.1.11,11.22.34,7.04.24,12.01.98,14.9,2.2,4.6,1.9,7.51,5.37,8.75,10.38.73,3.06,1.11,6.4,1.11,10.08,0,10.08-2.76,16.61-8.26,19.62-3.25,1.76-8.56,2.95-15.88,3.53-6.38.47-15.47.71-27.23.71-14.26,0-23.95-.54-29.09-1.65-3.08-.62-5.54-1.61-7.36-2.98-1.84-1.39-3.25-3.27-4.24-5.65-1.03-2.51-1.54-5.76-1.54-9.72,0-.96.02-2.44.06-4.45Zm-91.14-51.15h83.19v17.04h-60.65v12.82h57.25v14.85h-57.25v13.31h61.42v17.04h-83.96v-75.06Zm-73.35,75.06l-40.04-75.06h25.19l29.64,56.69,30.3-56.69h25.47l-41.58,75.06h-28.98Zm-95.01-29.04h32.28l-16.33-29.92-15.95,29.92Zm-41.29,29.04l42.23-75.06h30.63l41.07,75.06h-24.96l-7.47-13.42h-48.45l-7.21,13.42h-25.85Zm-75.52,0v-75.06h22.88v56.53h51.67v18.53h-74.55Zm-78.11,0v-75.06h22.88v56.53h51.67v18.53h-74.55Z"/>
  </g>
</svg>